HIERARCHY
ROOT Hips
{
  OFFSET 279.157 85.6768 304.565
  CHANNELS 6 Xposition Yposition Zposition Zrotation Xrotation Yrotation
  JOINT LeftUpLeg
  {
    OFFSET 8.64259 1.95398 -2.38835
    CHANNELS 3 Zrotation Xrotation Yrotation
    JOINT LeftLeg
    {
      OFFSET 43.7702 0 0
      CHANNELS 3 Zrotation Xrotation Yrotation
      JOINT LeftFoot
      {
        OFFSET 40.6238 0 0
        CHANNELS 3 Zrotation Xrotation Yrotation
        JOINT LeftToeBase
        {
          OFFSET 12.7242 0 0
          CHANNELS 3 Zrotation Xrotation Yrotation
          End Site
          {
            OFFSET 0 0 0
          }
        }
      }
    }
  }
  JOINT RightUpLeg
  {
    OFFSET -8.2249 1.95398 -2.59336
    CHANNELS 3 Zrotation Xrotation Yrotation
    JOINT RightLeg
    {
      OFFSET 43.5653 0 0
      CHANNELS 3 Zrotation Xrotation Yrotation
      JOINT RightFoot
      {
        OFFSET 40.6238 0 0
        CHANNELS 3 Zrotation Xrotation Yrotation
        JOINT RightToeBase
        {
          OFFSET 12.7242 0 0
          CHANNELS 3 Zrotation Xrotation Yrotation
          End Site
          {
            OFFSET 0 0 0
          }
        }
      }
    }
  }
  JOINT Spine
  {
    OFFSET 0.165834 0.87714 6.61349
    CHANNELS 3 Zrotation Xrotation Yrotation
    JOINT Spine1
    {
      OFFSET 7.38963 1.71661e-005 0
      CHANNELS 3 Zrotation Xrotation Yrotation
      JOINT Spine2
      {
        OFFSET 11.9445 1.14441e-005 0
        CHANNELS 3 Zrotation Xrotation Yrotation
        JOINT Spine3
        {
          OFFSET 14.7254 4.19617e-005 0
          CHANNELS 3 Zrotation Xrotation Yrotation
          JOINT Spine4
          {
            OFFSET 10.9679 0 0
            CHANNELS 3 Zrotation Xrotation Yrotation
            JOINT RightShoulder
            {
              OFFSET 2.46616 -1.6653 3.69651
              CHANNELS 3 Zrotation Xrotation Yrotation
              JOINT RightArm
              {
                OFFSET 13.0012 0 0
                CHANNELS 3 Zrotation Xrotation Yrotation
                JOINT RightForeArm
                {
                  OFFSET 28.7848 1.52588e-005 0
                  CHANNELS 3 Zrotation Xrotation Yrotation
                  JOINT RightHand
                  {
                    OFFSET 26.5688 1.52588e-005 0
                    CHANNELS 3 Zrotation Xrotation Yrotation
                    End Site
                    {
                      OFFSET 0 0 0
                    }
                  }
                }
              }
            }
            JOINT LeftShoulder
            {
              OFFSET 2.38034 -1.29275 -3.7523
              CHANNELS 3 Zrotation Xrotation Yrotation
              JOINT LeftArm
              {
                OFFSET 16.3182 6.10351e-005 0
                CHANNELS 3 Zrotation Xrotation Yrotation
                JOINT LeftForeArm
                {
                  OFFSET 27.0901 0 0
                  CHANNELS 3 Zrotation Xrotation Yrotation
                  JOINT LeftHand
                  {
                    OFFSET 24.5451 1.52588e-005 0
                    CHANNELS 3 Zrotation Xrotation Yrotation
                    End Site
                    {
                      OFFSET 0 0 0
                    }
                  }
                }
              }
            }
            JOINT Neck
            {
              OFFSET 5.0226 -0.0266342 0
              CHANNELS 3 Zrotation Xrotation Yrotation
              JOINT Head
              {
                OFFSET 6.69364 2.86102e-005 0
                CHANNELS 3 Zrotation Xrotation Yrotation
                End Site
                {
                  OFFSET 0 0 0
                }
              }
            }
          }
        }
      }
    }
  }
}
MOTION
Frames:	9
Frame Time:	0.0416667
-0.730146 97.986 140.074 -149.464 -83.4345 -151.556 -178.166 17.3529 84.6225 -6.73467 0.66315 -1.95548 66.9871 3.85743 -2.62086 16.609 -9.48593 7.37761 174.143 -9.96988 90.9245 -21.8033 -16.747 -1.21097 78.0722 -10.2274 -3.32175 25.0019 0.468173 5.0425 1.01891 8.17485 -89.8956 10.5253 2.07748 0.0219774 -1.14396 2.07643 -0.0695243 -23.6915 1.97479 0.645572 -3.67887 1.97479 0.645572 86.7331 -28.1919 -114.044 28.8224 -10.5598 -13.5623 0.0433911 -23.8165 -19.6457 -25.9375 -0.443463 -8.89885 -89.8904 -58.5411 80.5714 -22.3147 -0.337505 -0.828263 5.47621 -0.974337 -13.0865 -0.406075 -0.188841 -10.0666 -1.30451 -2.03072 3.73637 -0.151894 -2.52468 -2.3836 
-0.515746 97.3645 146.809 -141.247 -82.9773 -143.461 -177.943 16.4024 84.4523 -7.75815 1.12918 -2.23077 59.481 -0.195998 -3.09384 13.2138 -10.5683 4.72855 173.694 -14.182 90.0866 -21.0298 -17.3886 -1.89449 76.7406 -10.0167 -4.38188 28.8734 -0.788459 5.9728 1.07876 8.04956 -89.8613 10.7756 2.21214 0.0710122 -0.893422 2.21313 -0.0264696 -23.4424 2.08847 0.73286 -3.4298 2.08848 0.732863 86.4939 -28.6514 -114.289 30.3802 -11.2609 -12.7706 -0.0917624 -23.9594 -19.5787 -25.4089 -0.392438 -9.28132 -89.6348 -59.2171 81.0395 -22.5522 0.313951 -0.17499 5.10538 -0.151008 -11.9032 -0.468872 -0.168626 -9.0682 -1.71182 -1.68637 4.03223 -0.402071 -2.20673 -2.59523 
-0.341364 97.3535 154.365 -135.27 -81.8217 -139.324 -176.956 16.7027 82.5858 -16.0327 3.14427 -3.27435 59.6959 -1.22134 -2.28307 8.79409 -13.1149 4.14373 171.957 -16.3174 86.6706 -24.0406 -18.8749 -3.13081 71.3615 -6.84672 -4.16208 37.0376 -3.18495 7.96968 1.10906 7.94186 -89.5645 10.9848 2.40968 0.637193 -0.684067 2.43538 0.530455 -23.2324 2.10673 1.3322 -3.2198 2.10674 1.3322 86.1274 -29.548 -114.562 33.8432 -12.2009 -11.0474 1.30235 -24.5151 -17.2524 -24.8627 -0.377987 -9.62205 -89.5332 -58.7365 81.0927 -22.9231 0.884707 0.738176 4.4057 -1.99397 -9.09445 -0.706003 -0.146504 -8.1719 -2.15527 -1.54122 2.50528 -1.04036 -1.84365 -1.7166 
-0.190889 97.8516 161.34 -138.616 -80.1929 -144.78 -175.79 12.6217 80.4631 -20.4333 4.35372 -4.57397 63.8518 1.53851 -1.89659 7.49378 -13.5375 3.31061 170.172 -14.8863 82.5947 -33.5122 -21.5558 -4.81036 63.8477 -2.19767 -2.23411 38.2289 -3.62763 10.547 0.998129 7.98041 -89.264 10.9004 2.32764 1.24537 -0.768925 2.3802 1.14167 -23.3108 1.8458 1.8874 -3.29815 1.84579 1.88739 85.8777 -30.1675 -114.739 37.6011 -12.9049 -8.37421 3.04095 -24.8443 -15.1078 -21.4364 -0.417404 -10.0422 -89.665 -58.0293 80.7868 -23.2816 0.969206 1.39669 4.17775 -3.66894 -6.96271 -2.42973 -0.089494 -7.62558 -3.15349 -1.14936 0.982893 -1.15079 -1.25308 -0.380469 
-0.0634431 98.2783 166.994 -133.524 -77.9821 -140.593 -175.185 8.05197 79.813 -21.6416 2.4819 -5.28361 67.3559 3.88484 -1.8842 10.4258 -11.4531 2.80046 170.84 -7.36124 79.9446 -48.5184 -24.5863 -6.26086 54.4332 3.21559 1.80116 26.1792 -0.0676704 6.67527 0.942816 8.05226 -89.1375 10.7528 2.27521 1.50511 -0.916958 2.33924 1.40348 -23.4552 1.71777 2.11928 -3.44259 1.71777 2.11928 85.3922 -30.7256 -115.393 39.4328 -13.3398 -5.90032 4.07511 -25.576 -14.1278 -24.5884 -0.656309 -8.42527 -89.7208 -57.3035 80.5778 -23.2808 1.49956 0.412486 3.94443 -3.88662 -5.82518 -1.49923 -0.109863 -7.00017 -3.20904 -0.366595 -0.210833 -1.21235 -0.336436 0.479634 
-0.0928237 98.6462 171.463 -128.206 -76.2133 -134.996 -175.514 4.48905 79.5062 -21.161 1.23758 -5.06001 69.9134 5.39755 -1.20308 10.4703 -11.7056 3.41087 174.434 1.60135 80.9892 -60.6038 -25.106 -7.4014 55.7246 2.35872 1.26383 24.4802 0.526658 5.63839 0.762151 8.09948 -89.2254 10.6624 1.8745 1.36915 -1.00784 1.93293 1.28532 -23.5438 1.37641 1.86917 -3.53112 1.37641 1.86916 84.379 -30.0995 -117.642 40.7797 -11.8171 -2.74688 2.87453 -22.9433 -15.1521 -24.7403 -0.436499 -8.77626 -90.5789 -57.3435 79.4005 -22.4379 2.09488 -1.15441 3.70633 -3.12897 -6.27507 -0.416046 -0.117434 -5.94558 -3.15547 0.977321 0.453864 -0.893285 0.920244 0.221372 
-0.404874 99.1756 175.78 -131.284 -76.1621 -135.173 -175.545 1.02146 81.4141 -21.059 2.47384 -3.52424 71.9087 6.79214 -0.352081 11.8997 -11.1599 4.18999 176.961 7.18827 85.2894 -60.626 -18.9877 -6.11554 63.7394 -2.40351 -0.532607 26.2092 0.0451116 5.50292 0.416126 8.22412 -89.5617 10.4222 1.02991 0.780353 -1.24854 1.06326 0.734269 -23.7838 0.747777 1.0538 -3.77113 0.747775 1.05379 86.2368 -31.5369 -113.399 39.3422 -12.6222 -3.47964 2.87573 -24.6637 -15.243 -24.8034 -0.630722 -8.23404 -90.312 -56.2961 79.5663 -19.9676 5.38016 -6.0866 2.2082 -1.67338 -5.58962 0.622048 -0.124196 -6.16997 -3.24962 1.76799 -1.91486 -0.33348 1.99375 1.99433 
-0.994864 99.5246 179.696 -134.238 -77.2102 -135.539 -174.997 -1.46282 83.8109 -20.7981 3.98016 -2.46615 73.578 7.99899 -0.235688 13.6303 -10.4811 5.13771 178.974 11.7391 89.9013 -51.7625 -10.8368 -4.86478 67.0931 -4.51559 -1.90306 25.9108 0.141357 5.47248 0.0692143 8.2847 -89.8825 10.3039 0.191656 0.217063 -1.36704 0.201018 0.208412 -23.9021 0.117561 0.264629 -3.88949 0.117556 0.264623 86.477 -32.4326 -112.539 38.4721 -11.2651 -2.78332 2.82875 -23.7057 -15.1066 -25.1523 -0.595092 -8.10765 -90.0879 -54.2309 79.4734 -18.9078 7.03173 -11.7787 1.56038 -1.08442 -5.76159 3.13163 -0.143168 -5.69201 -3.71065 2.39965 -3.62089 -0.568277 2.80542 3.03945 
-1.71063 99.4356 183.803 -140.411 -79.4742 -140.124 -174.7 -3.14262 85.4779 -21.2864 5.77453 -1.41856 75.7485 9.31305 -0.213855 13.879 -10.3775 5.26505 -179.915 14.3456 92.5461 -36.9467 -7.54233 -3.70411 66.7255 -4.36826 -0.957473 23.5827 0.972311 4.60056 -0.337137 8.30044 -90.0676 10.2731 -0.702537 -0.0738083 -1.39767 -0.705098 -0.04283 -23.9341 -0.647879 -0.28155 -3.92143 -0.647873 -0.281551 86.6705 -32.9677 -111.94 38.7463 -10.079 -2.06249 2.52301 -23.1163 -15.0617 -25.3417 -0.48841 -8.49194 -90.01 -51.9104 79.1161 -19.0097 5.70813 -16.7627 3.05843 1.65336 -7.77328 1.50122 -0.185937 -7.18066 -3.49891 2.69346 -5.43661 -1.20859 3.29346 4.17028 
